static const unsigned char Jump[1526] = {
	0x4D, 0x54, 0x68, 0x64, 0x00, 0x00, 0x00, 0x06, 0x00, 0x01, 0x00, 0x0B, 0x01, 0xE0, 0x4D, 0x54, 
	0x72, 0x6B, 0x00, 0x00, 0x00, 0x13, 0x00, 0xFF, 0x51, 0x03, 0x03, 0x8C, 0x6E, 0x00, 0xFF, 0x58, 
	0x04, 0x04, 0x02, 0x18, 0x08, 0x00, 0xFF, 0x2F, 0x00, 0x4D, 0x54, 0x72, 0x6B, 0x00, 0x00, 0x00, 
	0x2B, 0x00, 0xFF, 0x03, 0x0E, 0x41, 0x63, 0x6F, 0x75, 0x73, 0x74, 0x69, 0x63, 0x20, 0x50, 0x69, 
	0x61, 0x6E, 0x6F, 0x00, 0xC0, 0x00, 0x00, 0xFF, 0x59, 0x02, 0x00, 0x01, 0x00, 0xB0, 0x65, 0x00, 
	0x00, 0xB0, 0x64, 0x00, 0x00, 0xB0, 0x06, 0x06, 0x00, 0xFF, 0x2F, 0x00, 0x4D, 0x54, 0x72, 0x6B, 
	0x00, 0x00, 0x01, 0xFB, 0x00, 0x90, 0x24, 0x66, 0x00, 0x90, 0x35, 0x66, 0x00, 0xFF, 0x03, 0x0E, 
	0x41, 0x63, 0x6F, 0x75, 0x73, 0x74, 0x69, 0x63, 0x20, 0x50, 0x69, 0x61, 0x6E, 0x6F, 0x00, 0xC0, 
	0x00, 0x00, 0xFF, 0x59, 0x02, 0x00, 0x01, 0x00, 0xB0, 0x65, 0x00, 0x00, 0xB0, 0x64, 0x00, 0x00, 
	0xB0, 0x06, 0x06, 0x83, 0x60, 0x80, 0x24, 0x40, 0x00, 0x80, 0x35, 0x40, 0x00, 0x90, 0x31, 0x66, 
	0x83, 0x60, 0x80, 0x31, 0x40, 0x00, 0x90, 0x26, 0x66, 0x00, 0x90, 0x31, 0x66, 0x83, 0x60, 0x80, 
	0x26, 0x40, 0x00, 0x80, 0x31, 0x40, 0x00, 0x90, 0x31, 0x66, 0x83, 0x60, 0x80, 0x31, 0x40, 0x00, 
	0x90, 0x24, 0x66, 0x00, 0x90, 0x31, 0x66, 0x83, 0x60, 0x80, 0x24, 0x40, 0x00, 0x80, 0x31, 0x40, 
	0x00, 0x90, 0x24, 0x66, 0x00, 0x90, 0x31, 0x66, 0x83, 0x60, 0x80, 0x24, 0x40, 0x00, 0x80, 0x31, 
	0x40, 0x00, 0x90, 0x26, 0x66, 0x00, 0x90, 0x31, 0x66, 0x83, 0x60, 0x80, 0x26, 0x40, 0x00, 0x80, 
	0x31, 0x40, 0x00, 0x90, 0x31, 0x66, 0x83, 0x60, 0x80, 0x31, 0x40, 0x00, 0x90, 0x24, 0x66, 0x00, 
	0x90, 0x31, 0x66, 0x83, 0x60, 0x80, 0x24, 0x40, 0x00, 0x80, 0x31, 0x40, 0x00, 0x90, 0x24, 0x66, 
	0x00, 0x90, 0x31, 0x66, 0x83, 0x60, 0x80, 0x24, 0x40, 0x00, 0x80, 0x31, 0x40, 0x00, 0x90, 0x26, 
	0x66, 0x00, 0x90, 0x31, 0x66, 0x83, 0x60, 0x80, 0x26, 0x40, 0x00, 0x80, 0x31, 0x40, 0x00, 0x90, 
	0x31, 0x66, 0x83, 0x60, 0x80, 0x31, 0x40, 0x00, 0x90, 0x24, 0x66, 0x00, 0x90, 0x31, 0x66, 0x83, 
	0x60, 0x80, 0x24, 0x40, 0x00, 0x80, 0x31, 0x40, 0x00, 0x90, 0x24, 0x66, 0x00, 0x90, 0x31, 0x66, 
	0x83, 0x60, 0x80, 0x24, 0x40, 0x00, 0x80, 0x31, 0x40, 0x00, 0x90, 0x26, 0x66, 0x00, 0x90, 0x31, 
	0x66, 0x83, 0x60, 0x80, 0x26, 0x40, 0x00, 0x80, 0x31, 0x40, 0x00, 0x90, 0x31, 0x66, 0x83, 0x60, 
	0x80, 0x31, 0x40, 0x00, 0x90, 0x24, 0x66, 0x00, 0x90, 0x31, 0x66, 0x83, 0x60, 0x80, 0x24, 0x40, 
	0x00, 0x80, 0x31, 0x40, 0x00, 0x90, 0x24, 0x66, 0x00, 0x90, 0x31, 0x66, 0x83, 0x60, 0x80, 0x24, 
	0x40, 0x00, 0x80, 0x31, 0x40, 0x00, 0x90, 0x26, 0x66, 0x00, 0x90, 0x31, 0x66, 0x83, 0x60, 0x80, 
	0x26, 0x40, 0x00, 0x80, 0x31, 0x40, 0x00, 0x90, 0x31, 0x66, 0x83, 0x60, 0x80, 0x31, 0x40, 0x00, 
	0x90, 0x24, 0x66, 0x00, 0x90, 0x31, 0x66, 0x83, 0x60, 0x80, 0x24, 0x40, 0x00, 0x80, 0x31, 0x40, 
	0x00, 0x90, 0x24, 0x66, 0x00, 0x90, 0x31, 0x66, 0x83, 0x60, 0x80, 0x24, 0x40, 0x00, 0x80, 0x31, 
	0x40, 0x00, 0x90, 0x26, 0x66, 0x00, 0x90, 0x31, 0x66, 0x83, 0x60, 0x80, 0x26, 0x40, 0x00, 0x80, 
	0x31, 0x40, 0x00, 0x90, 0x31, 0x66, 0x83, 0x60, 0x80, 0x31, 0x40, 0x00, 0x90, 0x24, 0x66, 0x00, 
	0x90, 0x31, 0x66, 0x83, 0x60, 0x80, 0x24, 0x40, 0x00, 0x80, 0x31, 0x40, 0x00, 0x90, 0x31, 0x66, 
	0x83, 0x60, 0x80, 0x31, 0x40, 0x00, 0x90, 0x26, 0x66, 0x00, 0x90, 0x31, 0x66, 0x83, 0x60, 0x80, 
	0x26, 0x40, 0x00, 0x80, 0x31, 0x40, 0x00, 0x90, 0x31, 0x66, 0x83, 0x60, 0x80, 0x31, 0x40, 0x00, 
	0x90, 0x24, 0x66, 0x00, 0x90, 0x31, 0x66, 0x83, 0x60, 0x80, 0x24, 0x40, 0x00, 0x80, 0x31, 0x40, 
	0x00, 0x90, 0x24, 0x66, 0x00, 0x90, 0x31, 0x66, 0x83, 0x60, 0x80, 0x24, 0x40, 0x00, 0x80, 0x31, 
	0x40, 0x00, 0x90, 0x26, 0x66, 0x00, 0x90, 0x35, 0x66, 0x83, 0x60, 0x80, 0x26, 0x40, 0x00, 0x80, 
	0x35, 0x40, 0x00, 0x90, 0x35, 0x66, 0x83, 0x60, 0x80, 0x35, 0x40, 0x00, 0xFF, 0x2F, 0x00, 0x4D, 
	0x54, 0x72, 0x6B, 0x00, 0x00, 0x00, 0x2B, 0x00, 0xFF, 0x03, 0x0E, 0x41, 0x63, 0x6F, 0x75, 0x73, 
	0x74, 0x69, 0x63, 0x20, 0x50, 0x69, 0x61, 0x6E, 0x6F, 0x00, 0xC1, 0x00, 0x00, 0xFF, 0x59, 0x02, 
	0x00, 0x01, 0x00, 0xB1, 0x65, 0x00, 0x00, 0xB1, 0x64, 0x00, 0x00, 0xB1, 0x06, 0x06, 0x00, 0xFF, 
	0x2F, 0x00, 0x4D, 0x54, 0x72, 0x6B, 0x00, 0x00, 0x00, 0x5A, 0x00, 0x91, 0x30, 0x59, 0x00, 0xFF, 
	0x03, 0x0E, 0x41, 0x63, 0x6F, 0x75, 0x73, 0x74, 0x69, 0x63, 0x20, 0x50, 0x69, 0x61, 0x6E, 0x6F, 
	0x00, 0xC1, 0x00, 0x00, 0xFF, 0x59, 0x02, 0x00, 0x01, 0x00, 0xB1, 0x65, 0x00, 0x00, 0xB1, 0x64, 
	0x00, 0x00, 0xB1, 0x06, 0x06, 0xAD, 0x00, 0x81, 0x30, 0x40, 0x83, 0x60, 0x91, 0x30, 0x40, 0x83, 
	0x60, 0x81, 0x30, 0x40, 0x83, 0x60, 0x91, 0x30, 0x4C, 0x9E, 0x00, 0x81, 0x30, 0x40, 0x00, 0x91, 
	0x35, 0x59, 0x8F, 0x00, 0x81, 0x35, 0x40, 0x00, 0x91, 0x37, 0x59, 0x92, 0x60, 0x81, 0x37, 0x40, 
	0x00, 0xFF, 0x2F, 0x00, 0x4D, 0x54, 0x72, 0x6B, 0x00, 0x00, 0x00, 0x2B, 0x00, 0xFF, 0x03, 0x0E, 
	0x41, 0x63, 0x6F, 0x75, 0x73, 0x74, 0x69, 0x63, 0x20, 0x50, 0x69, 0x61, 0x6E, 0x6F, 0x00, 0xC2, 
	0x00, 0x00, 0xFF, 0x59, 0x02, 0x00, 0x01, 0x00, 0xB2, 0x65, 0x00, 0x00, 0xB2, 0x64, 0x00, 0x00, 
	0xB2, 0x06, 0x06, 0x00, 0xFF, 0x2F, 0x00, 0x4D, 0x54, 0x72, 0x6B, 0x00, 0x00, 0x00, 0x5A, 0x00, 
	0x92, 0x30, 0x59, 0x00, 0xFF, 0x03, 0x0E, 0x41, 0x63, 0x6F, 0x75, 0x73, 0x74, 0x69, 0x63, 0x20, 
	0x50, 0x69, 0x61, 0x6E, 0x6F, 0x00, 0xC2, 0x00, 0x00, 0xFF, 0x59, 0x02, 0x00, 0x01, 0x00, 0xB2, 
	0x65, 0x00, 0x00, 0xB2, 0x64, 0x00, 0x00, 0xB2, 0x06, 0x06, 0xAD, 0x00, 0x82, 0x30, 0x40, 0x83, 
	0x60, 0x92, 0x30, 0x40, 0x83, 0x60, 0x82, 0x30, 0x40, 0x83, 0x60, 0x92, 0x30, 0x4C, 0x9E, 0x00, 
	0x82, 0x30, 0x40, 0x00, 0x92, 0x35, 0x59, 0x8F, 0x00, 0x82, 0x35, 0x40, 0x00, 0x92, 0x37, 0x59, 
	0x92, 0x60, 0x82, 0x37, 0x40, 0x00, 0xFF, 0x2F, 0x00, 0x4D, 0x54, 0x72, 0x6B, 0x00, 0x00, 0x00, 
	0x5C, 0x00, 0xFF, 0x03, 0x0E, 0x41, 0x63, 0x6F, 0x75, 0x73, 0x74, 0x69, 0x63, 0x20, 0x50, 0x69, 
	0x61, 0x6E, 0x6F, 0x00, 0xC3, 0x00, 0x00, 0xFF, 0x59, 0x02, 0x00, 0x01, 0x00, 0xB3, 0x65, 0x00, 
	0x00, 0xB3, 0x64, 0x00, 0x00, 0xB3, 0x06, 0x06, 0x87, 0x40, 0x93, 0x3E, 0x59, 0x87, 0x40, 0x83, 
	0x3E, 0x40, 0x83, 0x60, 0x93, 0x40, 0x40, 0x87, 0x40, 0x83, 0x40, 0x40, 0x96, 0x40, 0x93, 0x3E, 
	0x4C, 0x83, 0x60, 0x83, 0x3E, 0x40, 0x83, 0x60, 0x93, 0x3E, 0x4C, 0x8B, 0x20, 0x83, 0x3E, 0x40, 
	0x00, 0x93, 0x40, 0x4C, 0x87, 0x40, 0x83, 0x40, 0x40, 0x00, 0xFF, 0x2F, 0x00, 0x4D, 0x54, 0x72, 
	0x6B, 0x00, 0x00, 0x01, 0x2D, 0x00, 0x93, 0x24, 0x40, 0x00, 0xFF, 0x03, 0x0E, 0x41, 0x63, 0x6F, 
	0x75, 0x73, 0x74, 0x69, 0x63, 0x20, 0x50, 0x69, 0x61, 0x6E, 0x6F, 0x00, 0xC3, 0x00, 0x00, 0xFF, 
	0x59, 0x02, 0x00, 0x01, 0x00, 0xB3, 0x65, 0x00, 0x00, 0xB3, 0x64, 0x00, 0x00, 0xB3, 0x06, 0x06, 
	0x87, 0x40, 0x93, 0x37, 0x40, 0x00, 0x93, 0x3B, 0x40, 0x87, 0x40, 0x83, 0x37, 0x40, 0x00, 0x83, 
	0x3B, 0x40, 0x83, 0x60, 0x93, 0x37, 0x40, 0x00, 0x93, 0x3C, 0x40, 0x87, 0x40, 0x83, 0x37, 0x40, 
	0x00, 0x83, 0x3C, 0x40, 0x83, 0x60, 0x93, 0x35, 0x40, 0x00, 0x93, 0x39, 0x40, 0x00, 0x93, 0x3C, 
	0x40, 0x87, 0x40, 0x83, 0x35, 0x40, 0x00, 0x83, 0x39, 0x40, 0x00, 0x83, 0x3C, 0x40, 0x83, 0x60, 
	0x93, 0x39, 0x40, 0x00, 0x93, 0x3C, 0x40, 0x00, 0x93, 0x35, 0x40, 0x87, 0x40, 0x83, 0x39, 0x40, 
	0x00, 0x83, 0x3C, 0x40, 0x00, 0x83, 0x35, 0x40, 0x00, 0x93, 0x3B, 0x40, 0x00, 0x93, 0x37, 0x40, 
	0x83, 0x60, 0x83, 0x3B, 0x40, 0x00, 0x83, 0x37, 0x40, 0x83, 0x60, 0x93, 0x37, 0x40, 0x00, 0x93, 
	0x3B, 0x40, 0x8B, 0x20, 0x83, 0x37, 0x40, 0x00, 0x83, 0x3B, 0x40, 0x00, 0x93, 0x37, 0x40, 0x00, 
	0x93, 0x3C, 0x40, 0x87, 0x40, 0x83, 0x37, 0x40, 0x00, 0x83, 0x3C, 0x40, 0x83, 0x60, 0x93, 0x35, 
	0x40, 0x00, 0x93, 0x39, 0x40, 0x00, 0x93, 0x3C, 0x40, 0x83, 0x60, 0x83, 0x35, 0x40, 0x00, 0x83, 
	0x39, 0x40, 0x00, 0x83, 0x3C, 0x40, 0x83, 0x60, 0x83, 0x24, 0x40, 0x00, 0x93, 0x30, 0x4C, 0x00, 
	0x93, 0x35, 0x4C, 0x00, 0x93, 0x39, 0x4C, 0x00, 0x93, 0x29, 0x4C, 0x87, 0x40, 0x83, 0x30, 0x40, 
	0x00, 0x83, 0x35, 0x40, 0x00, 0x83, 0x39, 0x40, 0x00, 0x93, 0x37, 0x4C, 0x00, 0x93, 0x35, 0x4C, 
	0x00, 0x93, 0x30, 0x4C, 0x87, 0x40, 0x83, 0x37, 0x40, 0x00, 0x83, 0x35, 0x40, 0x00, 0x83, 0x30, 
	0x40, 0x00, 0x93, 0x30, 0x4C, 0x00, 0x93, 0x32, 0x4C, 0x00, 0x93, 0x37, 0x4C, 0x8F, 0x00, 0x83, 
	0x29, 0x40, 0x00, 0x83, 0x30, 0x40, 0x00, 0x83, 0x32, 0x40, 0x00, 0x83, 0x37, 0x40, 0x00, 0xFF, 
	0x2F, 0x00, 0x4D, 0x54, 0x72, 0x6B, 0x00, 0x00, 0x00, 0x99, 0x00, 0xFF, 0x03, 0x0E, 0x41, 0x63, 
	0x6F, 0x75, 0x73, 0x74, 0x69, 0x63, 0x20, 0x50, 0x69, 0x61, 0x6E, 0x6F, 0x00, 0xC4, 0x00, 0x00, 
	0xFF, 0x59, 0x02, 0x00, 0x01, 0x00, 0xB4, 0x65, 0x00, 0x00, 0xB4, 0x64, 0x00, 0x00, 0xB4, 0x06, 
	0x06, 0x87, 0x40, 0x94, 0x4A, 0x59, 0x87, 0x40, 0x84, 0x4A, 0x40, 0x83, 0x60, 0x94, 0x4C, 0x59, 
	0x87, 0x40, 0x84, 0x4C, 0x40, 0x83, 0x60, 0x94, 0x48, 0x59, 0x87, 0x40, 0x84, 0x48, 0x40, 0x83, 
	0x60, 0x94, 0x48, 0x59, 0x83, 0x60, 0x84, 0x48, 0x40, 0x83, 0x60, 0x94, 0x4A, 0x59, 0x83, 0x60, 
	0x84, 0x4A, 0x40, 0x83, 0x60, 0x94, 0x4A, 0x66, 0x87, 0x40, 0x84, 0x4A, 0x40, 0x83, 0x60, 0x94, 
	0x4C, 0x59, 0x83, 0x60, 0x84, 0x4C, 0x40, 0x87, 0x40, 0x94, 0x48, 0x59, 0x83, 0x60, 0x84, 0x48, 
	0x40, 0x83, 0x60, 0x94, 0x45, 0x59, 0x83, 0x60, 0x84, 0x45, 0x40, 0x83, 0x60, 0x94, 0x43, 0x4C, 
	0x83, 0x60, 0x84, 0x43, 0x40, 0x83, 0x60, 0x94, 0x43, 0x59, 0x90, 0x70, 0x84, 0x43, 0x40, 0x00, 
	0xFF, 0x2F, 0x00, 0x4D, 0x54, 0x72, 0x6B, 0x00, 0x00, 0x00, 0x2B, 0x00, 0xFF, 0x03, 0x0E, 0x41, 
	0x63, 0x6F, 0x75, 0x73, 0x74, 0x69, 0x63, 0x20, 0x50, 0x69, 0x61, 0x6E, 0x6F, 0x00, 0xC4, 0x00, 
	0x00, 0xFF, 0x59, 0x02, 0x00, 0x01, 0x00, 0xB4, 0x65, 0x00, 0x00, 0xB4, 0x64, 0x00, 0x00, 0xB4, 
	0x06, 0x06, 0x00, 0xFF, 0x2F, 0x00
};

static const unsigned char OutOfTouch[1135] = {
	0x4D, 0x54, 0x68, 0x64, 0x00, 0x00, 0x00, 0x06, 0x00, 0x00, 0x00, 0x01, 0x00, 0x18, 0x4D, 0x54, 
	0x72, 0x6B, 0x00, 0x00, 0x04, 0x59, 0x00, 0xFF, 0x58, 0x04, 0x04, 0x02, 0x18, 0x08, 0x00, 0xFF, 
	0x51, 0x03, 0x03, 0xFB, 0x05, 0x00, 0xFF, 0x59, 0x02, 0x00, 0x00, 0x00, 0x90, 0x31, 0x00, 0x00, 
	0x90, 0x24, 0x7F, 0x00, 0x91, 0x34, 0x00, 0x00, 0x90, 0x31, 0x7F, 0x00, 0x92, 0x28, 0x00, 0x00, 
	0x91, 0x35, 0x64, 0x00, 0x93, 0x37, 0x00, 0x00, 0x92, 0x29, 0x7F, 0x00, 0x93, 0x34, 0x00, 0x00, 
	0x93, 0x39, 0x7F, 0x00, 0x93, 0x30, 0x00, 0x00, 0x93, 0x35, 0x7F, 0x00, 0x93, 0x28, 0x00, 0x00, 
	0x93, 0x30, 0x7F, 0x00, 0x94, 0x45, 0x00, 0x00, 0x93, 0x29, 0x7F, 0x18, 0x90, 0x24, 0x00, 0x00, 
	0x90, 0x31, 0x7F, 0x00, 0x90, 0x31, 0x00, 0x00, 0x91, 0x35, 0x64, 0x00, 0x91, 0x35, 0x00, 0x18, 
	0x90, 0x31, 0x00, 0x00, 0x90, 0x26, 0x7F, 0x00, 0x91, 0x35, 0x00, 0x00, 0x90, 0x31, 0x7F, 0x00, 
	0x91, 0x35, 0x64, 0x00, 0x94, 0x4C, 0x6E, 0x18, 0x90, 0x26, 0x00, 0x00, 0x90, 0x24, 0x7F, 0x00, 
	0x90, 0x31, 0x00, 0x00, 0x90, 0x31, 0x7F, 0x00, 0x91, 0x35, 0x00, 0x00, 0x91, 0x35, 0x64, 0x00, 
	0x94, 0x4C, 0x00, 0x00, 0x94, 0x4A, 0x6E, 0x18, 0x90, 0x24, 0x00, 0x00, 0x90, 0x31, 0x7F, 0x00, 
	0x90, 0x31, 0x00, 0x00, 0x91, 0x35, 0x64, 0x00, 0x91, 0x35, 0x00, 0x18, 0x90, 0x31, 0x00, 0x00, 
	0x90, 0x31, 0x7F, 0x00, 0x91, 0x35, 0x00, 0x00, 0x91, 0x35, 0x64, 0x00, 0x94, 0x4A, 0x00, 0x00, 
	0x94, 0x4C, 0x6E, 0x18, 0x90, 0x31, 0x00, 0x00, 0x90, 0x26, 0x7F, 0x00, 0x91, 0x35, 0x00, 0x00, 
	0x90, 0x31, 0x7F, 0x00, 0x94, 0x4C, 0x00, 0x00, 0x91, 0x35, 0x64, 0x00, 0x94, 0x4A, 0x6E, 0x18, 
	0x90, 0x26, 0x00, 0x00, 0x90, 0x31, 0x7F, 0x00, 0x90, 0x31, 0x00, 0x00, 0x91, 0x35, 0x64, 0x00, 
	0x91, 0x35, 0x00, 0x18, 0x90, 0x31, 0x00, 0x00, 0x90, 0x24, 0x7F, 0x00, 0x91, 0x35, 0x00, 0x00, 
	0x90, 0x31, 0x7F, 0x00, 0x92, 0x29, 0x00, 0x00, 0x91, 0x32, 0x64, 0x00, 0x93, 0x39, 0x00, 0x00, 
	0x92, 0x26, 0x7F, 0x00, 0x93, 0x35, 0x00, 0x00, 0x93, 0x39, 0x7F, 0x00, 0x93, 0x30, 0x00, 0x00, 
	0x93, 0x35, 0x7F, 0x00, 0x93, 0x29, 0x00, 0x00, 0x93, 0x30, 0x7F, 0x00, 0x94, 0x4A, 0x00, 0x00, 
	0x93, 0x29, 0x7F, 0x18, 0x90, 0x24, 0x00, 0x00, 0x90, 0x31, 0x7F, 0x00, 0x90, 0x31, 0x00, 0x00, 
	0x91, 0x32, 0x64, 0x00, 0x91, 0x32, 0x00, 0x00, 0x93, 0x39, 0x00, 0x00, 0x93, 0x35, 0x00, 0x00, 
	0x93, 0x30, 0x00, 0x00, 0x93, 0x29, 0x00, 0x18, 0x90, 0x31, 0x00, 0x00, 0x90, 0x26, 0x7F, 0x00, 
	0x91, 0x32, 0x00, 0x00, 0x90, 0x31, 0x7F, 0x00, 0x92, 0x26, 0x00, 0x00, 0x91, 0x37, 0x64, 0x00, 
	0x92, 0x2B, 0x7F, 0x00, 0x93, 0x3B, 0x7F, 0x00, 0x93, 0x37, 0x7F, 0x00, 0x93, 0x32, 0x7F, 0x00, 
	0x93, 0x2B, 0x7F, 0x00, 0x94, 0x48, 0x6E, 0x18, 0x90, 0x26, 0x00, 0x00, 0x90, 0x24, 0x7F, 0x00, 
	0x90, 0x31, 0x00, 0x00, 0x90, 0x31, 0x7F, 0x00, 0x91, 0x37, 0x00, 0x00, 0x91, 0x37, 0x64, 0x00, 
	0x94, 0x48, 0x00, 0x00, 0x94, 0x4A, 0x6E, 0x18, 0x90, 0x24, 0x00, 0x00, 0x90, 0x31, 0x7F, 0x00, 
	0x90, 0x31, 0x00, 0x00, 0x91, 0x37, 0x64, 0x00, 0x91, 0x37, 0x00, 0x18, 0x90, 0x31, 0x00, 0x00, 
	0x90, 0x24, 0x7F, 0x00, 0x91, 0x37, 0x00, 0x00, 0x90, 0x31, 0x7F, 0x00, 0x94, 0x4A, 0x00, 0x00, 
	0x91, 0x37, 0x64, 0x00, 0x94, 0x48, 0x6E, 0x18, 0x90, 0x24, 0x00, 0x00, 0x90, 0x26, 0x7F, 0x00, 
	0x90, 0x31, 0x00, 0x00, 0x90, 0x31, 0x7F, 0x00, 0x91, 0x37, 0x00, 0x00, 0x91, 0x37, 0x64, 0x00, 
	0x94, 0x48, 0x00, 0x00, 0x94, 0x4C, 0x6E, 0x18, 0x90, 0x26, 0x00, 0x00, 0x90, 0x31, 0x7F, 0x00, 
	0x90, 0x31, 0x00, 0x00, 0x91, 0x37, 0x64, 0x00, 0x91, 0x37, 0x00, 0x18, 0x90, 0x31, 0x00, 0x00, 
	0x90, 0x24, 0x7F, 0x00, 0x91, 0x37, 0x00, 0x00, 0x90, 0x31, 0x7F, 0x00, 0x92, 0x2B, 0x00, 0x00, 
	0x91, 0x39, 0x64, 0x00, 0x93, 0x3B, 0x00, 0x00, 0x92, 0x2D, 0x7F, 0x00, 0x93, 0x37, 0x00, 0x00, 
	0x93, 0x3C, 0x7F, 0x00, 0x93, 0x32, 0x00, 0x00, 0x93, 0x39, 0x7F, 0x00, 0x93, 0x2B, 0x00, 0x00, 
	0x93, 0x34, 0x7F, 0x00, 0x94, 0x4C, 0x00, 0x00, 0x93, 0x2D, 0x7F, 0x18, 0x90, 0x24, 0x00, 0x00, 
	0x90, 0x31, 0x7F, 0x00, 0x90, 0x31, 0x00, 0x00, 0x91, 0x39, 0x64, 0x00, 0x91, 0x39, 0x00, 0x18, 
	0x90, 0x31, 0x00, 0x00, 0x90, 0x26, 0x7F, 0x00, 0x91, 0x39, 0x00, 0x00, 0x90, 0x31, 0x7F, 0x00, 
	0x91, 0x39, 0x64, 0x00, 0x94, 0x45, 0x6E, 0x18, 0x90, 0x26, 0x00, 0x00, 0x90, 0x24, 0x7F, 0x00, 
	0x90, 0x31, 0x00, 0x00, 0x90, 0x31, 0x7F, 0x00, 0x91, 0x39, 0x00, 0x00, 0x91, 0x39, 0x64, 0x00, 
	0x94, 0x45, 0x00, 0x00, 0x94, 0x45, 0x6E, 0x18, 0x90, 0x24, 0x00, 0x00, 0x90, 0x31, 0x7F, 0x00, 
	0x90, 0x31, 0x00, 0x00, 0x91, 0x37, 0x67, 0x00, 0x91, 0x39, 0x00, 0x00, 0x92, 0x2B, 0x7D, 0x00, 
	0x92, 0x2D, 0x00, 0x00, 0x93, 0x3B, 0x7F, 0x00, 0x93, 0x3C, 0x00, 0x00, 0x93, 0x37, 0x7F, 0x00, 
	0x93, 0x39, 0x00, 0x00, 0x93, 0x32, 0x7F, 0x00, 0x93, 0x34, 0x00, 0x00, 0x93, 0x2B, 0x7F, 0x00, 
	0x93, 0x2D, 0x00, 0x00, 0x94, 0x48, 0x6E, 0x00, 0x94, 0x45, 0x00, 0x18, 0x90, 0x31, 0x00, 0x00, 
	0x90, 0x31, 0x7F, 0x00, 0x91, 0x37, 0x00, 0x00, 0x91, 0x37, 0x67, 0x00, 0x94, 0x48, 0x00, 0x00, 
	0x94, 0x48, 0x6E, 0x18, 0x90, 0x31, 0x00, 0x00, 0x90, 0x26, 0x7F, 0x00, 0x91, 0x37, 0x00, 0x00, 
	0x90, 0x31, 0x7F, 0x00, 0x94, 0x48, 0x00, 0x00, 0x91, 0x37, 0x67, 0x00, 0x94, 0x4A, 0x6E, 0x18, 
	0x90, 0x26, 0x00, 0x00, 0x90, 0x31, 0x7F, 0x00, 0x90, 0x31, 0x00, 0x00, 0x91, 0x37, 0x67, 0x00, 
	0x91, 0x37, 0x00, 0x00, 0x92, 0x2D, 0x7D, 0x00, 0x92, 0x2B, 0x00, 0x00, 0x94, 0x4A, 0x00, 0x18, 
	0x90, 0x31, 0x00, 0x00, 0x90, 0x24, 0x7F, 0x00, 0x91, 0x37, 0x00, 0x00, 0x90, 0x31, 0x7F, 0x00, 
	0x93, 0x3B, 0x00, 0x00, 0x91, 0x39, 0x64, 0x00, 0x93, 0x37, 0x00, 0x00, 0x93, 0x3C, 0x7F, 0x00, 
	0x93, 0x32, 0x00, 0x00, 0x93, 0x39, 0x7F, 0x00, 0x93, 0x2B, 0x00, 0x00, 0x93, 0x34, 0x7F, 0x00, 
	0x93, 0x2D, 0x7F, 0x00, 0x94, 0x4C, 0x6E, 0x18, 0x90, 0x24, 0x00, 0x00, 0x90, 0x31, 0x7F, 0x00, 
	0x90, 0x31, 0x00, 0x00, 0x91, 0x39, 0x64, 0x00, 0x91, 0x39, 0x00, 0x18, 0x90, 0x31, 0x00, 0x00, 
	0x90, 0x26, 0x7F, 0x00, 0x91, 0x39, 0x00, 0x00, 0x90, 0x31, 0x7F, 0x00, 0x94, 0x4C, 0x00, 0x00, 
	0x91, 0x39, 0x64, 0x00, 0x94, 0x4A, 0x6E, 0x18, 0x90, 0x26, 0x00, 0x00, 0x90, 0x24, 0x7F, 0x00, 
	0x90, 0x31, 0x00, 0x00, 0x90, 0x31, 0x7F, 0x00, 0x91, 0x39, 0x00, 0x00, 0x91, 0x39, 0x64, 0x00, 
	0x94, 0x4A, 0x00, 0x00, 0x94, 0x4A, 0x6E, 0x18, 0x90, 0x24, 0x00, 0x00, 0x90, 0x31, 0x7F, 0x00, 
	0x90, 0x31, 0x00, 0x00, 0x91, 0x39, 0x67, 0x00, 0x91, 0x39, 0x00, 0x00, 0x94, 0x48, 0x6E, 0x00, 
	0x94, 0x4A, 0x00, 0x18, 0x90, 0x31, 0x00, 0x00, 0x90, 0x24, 0x7F, 0x00, 0x91, 0x39, 0x00, 0x00, 
	0x90, 0x31, 0x7F, 0x00, 0x92, 0x2D, 0x00, 0x00, 0x91, 0x34, 0x67, 0x00, 0x93, 0x3C, 0x00, 0x00, 
	0x92, 0x28, 0x7D, 0x00, 0x93, 0x39, 0x00, 0x00, 0x93, 0x37, 0x7F, 0x00, 0x93, 0x34, 0x00, 0x00, 
	0x93, 0x34, 0x7F, 0x00, 0x93, 0x2D, 0x00, 0x00, 0x93, 0x30, 0x7F, 0x00, 0x94, 0x48, 0x00, 0x00, 
	0x93, 0x28, 0x7F, 0x00, 0x94, 0x47, 0x6E, 0x18, 0x90, 0x24, 0x00, 0x00, 0x90, 0x26, 0x7F, 0x00, 
	0x90, 0x31, 0x00, 0x00, 0x90, 0x31, 0x7F, 0x00, 0x91, 0x34, 0x00, 0x00, 0x91, 0x34, 0x67, 0x00, 
	0x94, 0x47, 0x00, 0x18, 0x90, 0x26, 0x00, 0x00, 0x90, 0x31, 0x7F, 0x00, 0x90, 0x31, 0x00, 0x00, 
	0x91, 0x34, 0x67, 0x00, 0x91, 0x34, 0x00, 0x00, 0x94, 0x45, 0x6E, 0x00, 0xFF, 0x2F, 0x00
};

static const unsigned char Smalltown[1732] = {
	0x4D, 0x54, 0x68, 0x64, 0x00, 0x00, 0x00, 0x06, 0x00, 0x01, 0x00, 0x0B, 0x01, 0xE0, 0x4D, 0x54, 
	0x72, 0x6B, 0x00, 0x00, 0x00, 0x13, 0x00, 0xFF, 0x51, 0x03, 0x03, 0x6A, 0x88, 0x00, 0xFF, 0x58, 
	0x04, 0x04, 0x02, 0x18, 0x08, 0x00, 0xFF, 0x2F, 0x00, 0x4D, 0x54, 0x72, 0x6B, 0x00, 0x00, 0x00, 
	0x2B, 0x00, 0xFF, 0x03, 0x0E, 0x41, 0x63, 0x6F, 0x75, 0x73, 0x74, 0x69, 0x63, 0x20, 0x50, 0x69, 
	0x61, 0x6E, 0x6F, 0x00, 0xC0, 0x00, 0x00, 0xFF, 0x59, 0x02, 0x00, 0x01, 0x00, 0xB0, 0x65, 0x00, 
	0x00, 0xB0, 0x64, 0x00, 0x00, 0xB0, 0x06, 0x06, 0x00, 0xFF, 0x2F, 0x00, 0x4D, 0x54, 0x72, 0x6B, 
	0x00, 0x00, 0x01, 0xD3, 0x00, 0x90, 0x24, 0x66, 0x00, 0x90, 0x31, 0x66, 0x00, 0xFF, 0x03, 0x0E, 
	0x41, 0x63, 0x6F, 0x75, 0x73, 0x74, 0x69, 0x63, 0x20, 0x50, 0x69, 0x61, 0x6E, 0x6F, 0x00, 0xC0, 
	0x00, 0x00, 0xFF, 0x59, 0x02, 0x00, 0x01, 0x00, 0xB0, 0x65, 0x00, 0x00, 0xB0, 0x64, 0x00, 0x00, 
	0xB0, 0x06, 0x06, 0x83, 0x60, 0x80, 0x24, 0x40, 0x00, 0x80, 0x31, 0x40, 0x00, 0x90, 0x31, 0x66, 
	0x83, 0x60, 0x80, 0x31, 0x40, 0x00, 0x90, 0x26, 0x66, 0x00, 0x90, 0x31, 0x66, 0x83, 0x60, 0x80, 
	0x26, 0x40, 0x00, 0x80, 0x31, 0x40, 0x00, 0x90, 0x31, 0x66, 0x83, 0x60, 0x80, 0x31, 0x40, 0x00, 
	0x90, 0x24, 0x66, 0x00, 0x90, 0x31, 0x66, 0x83, 0x60, 0x80, 0x24, 0x40, 0x00, 0x80, 0x31, 0x40, 
	0x00, 0x90, 0x31, 0x66, 0x83, 0x60, 0x80, 0x31, 0x40, 0x00, 0x90, 0x26, 0x66, 0x00, 0x90, 0x31, 
	0x66, 0x83, 0x60, 0x80, 0x26, 0x40, 0x00, 0x80, 0x31, 0x40, 0x00, 0x90, 0x31, 0x66, 0x83, 0x60, 
	0x80, 0x31, 0x40, 0x00, 0x90, 0x24, 0x66, 0x00, 0x90, 0x31, 0x66, 0x83, 0x60, 0x80, 0x24, 0x40, 
	0x00, 0x80, 0x31, 0x40, 0x00, 0x90, 0x31, 0x66, 0x83, 0x60, 0x80, 0x31, 0x40, 0x00, 0x90, 0x26, 
	0x66, 0x00, 0x90, 0x31, 0x66, 0x83, 0x60, 0x80, 0x26, 0x40, 0x00, 0x80, 0x31, 0x40, 0x00, 0x90, 
	0x31, 0x66, 0x83, 0x60, 0x80, 0x31, 0x40, 0x00, 0x90, 0x24, 0x66, 0x00, 0x90, 0x31, 0x66, 0x83, 
	0x60, 0x80, 0x24, 0x40, 0x00, 0x80, 0x31, 0x40, 0x00, 0x90, 0x31, 0x66, 0x83, 0x60, 0x80, 0x31, 
	0x40, 0x00, 0x90, 0x26, 0x66, 0x00, 0x90, 0x31, 0x66, 0x83, 0x60, 0x80, 0x26, 0x40, 0x00, 0x80, 
	0x31, 0x40, 0x00, 0x90, 0x31, 0x66, 0x83, 0x60, 0x80, 0x31, 0x40, 0x00, 0x90, 0x24, 0x66, 0x00, 
	0x90, 0x31, 0x66, 0x83, 0x60, 0x80, 0x24, 0x40, 0x00, 0x80, 0x31, 0x40, 0x00, 0x90, 0x31, 0x66, 
	0x83, 0x60, 0x80, 0x31, 0x40, 0x00, 0x90, 0x26, 0x66, 0x00, 0x90, 0x31, 0x66, 0x83, 0x60, 0x80, 
	0x26, 0x40, 0x00, 0x80, 0x31, 0x40, 0x00, 0x90, 0x31, 0x66, 0x83, 0x60, 0x80, 0x31, 0x40, 0x00, 
	0x90, 0x24, 0x66, 0x00, 0x90, 0x31, 0x66, 0x83, 0x60, 0x80, 0x24, 0x40, 0x00, 0x80, 0x31, 0x40, 
	0x00, 0x90, 0x31, 0x66, 0x83, 0x60, 0x80, 0x31, 0x40, 0x00, 0x90, 0x26, 0x66, 0x00, 0x90, 0x31, 
	0x66, 0x83, 0x60, 0x80, 0x26, 0x40, 0x00, 0x80, 0x31, 0x40, 0x00, 0x90, 0x31, 0x66, 0x83, 0x60, 
	0x80, 0x31, 0x40, 0x00, 0x90, 0x24, 0x66, 0x00, 0x90, 0x31, 0x66, 0x83, 0x60, 0x80, 0x24, 0x40, 
	0x00, 0x80, 0x31, 0x40, 0x00, 0x90, 0x31, 0x66, 0x83, 0x60, 0x80, 0x31, 0x40, 0x00, 0x90, 0x26, 
	0x66, 0x00, 0x90, 0x31, 0x66, 0x83, 0x60, 0x80, 0x26, 0x40, 0x00, 0x80, 0x31, 0x40, 0x00, 0x90, 
	0x31, 0x66, 0x83, 0x60, 0x80, 0x31, 0x40, 0x00, 0x90, 0x24, 0x66, 0x00, 0x90, 0x31, 0x66, 0x83, 
	0x60, 0x80, 0x24, 0x40, 0x00, 0x80, 0x31, 0x40, 0x00, 0x90, 0x31, 0x66, 0x83, 0x60, 0x80, 0x31, 
	0x40, 0x00, 0x90, 0x26, 0x66, 0x00, 0x90, 0x31, 0x66, 0x83, 0x60, 0x80, 0x26, 0x40, 0x00, 0x80, 
	0x31, 0x40, 0x00, 0x90, 0x26, 0x66, 0x00, 0x90, 0x31, 0x66, 0x83, 0x60, 0x80, 0x26, 0x40, 0x00, 
	0x80, 0x31, 0x40, 0x00, 0xFF, 0x2F, 0x00, 0x4D, 0x54, 0x72, 0x6B, 0x00, 0x00, 0x00, 0x53, 0x00, 
	0xFF, 0x03, 0x0E, 0x41, 0x63, 0x6F, 0x75, 0x73, 0x74, 0x69, 0x63, 0x20, 0x50, 0x69, 0x61, 0x6E, 
	0x6F, 0x00, 0xC1, 0x00, 0x00, 0xFF, 0x59, 0x02, 0x00, 0x01, 0x00, 0xB1, 0x65, 0x00, 0x00, 0xB1, 
	0x64, 0x00, 0x00, 0xB1, 0x06, 0x06, 0xDD, 0x60, 0x91, 0x3F, 0x66, 0x83, 0x60, 0x81, 0x3F, 0x40, 
	0x83, 0x60, 0x91, 0x3F, 0x59, 0x83, 0x60, 0x81, 0x3F, 0x40, 0x83, 0x60, 0x91, 0x3F, 0x66, 0x83, 
	0x60, 0x81, 0x3F, 0x40, 0x83, 0x60, 0x91, 0x3E, 0x59, 0x83, 0x60, 0x81, 0x3E, 0x40, 0x00, 0xFF, 
	0x2F, 0x00, 0x4D, 0x54, 0x72, 0x6B, 0x00, 0x00, 0x01, 0x2A, 0x00, 0x91, 0x30, 0x59, 0x00, 0xFF, 
	0x03, 0x0E, 0x41, 0x63, 0x6F, 0x75, 0x73, 0x74, 0x69, 0x63, 0x20, 0x50, 0x69, 0x61, 0x6E, 0x6F, 
	0x00, 0xC1, 0x00, 0x00, 0xFF, 0x59, 0x02, 0x00, 0x01, 0x00, 0xB1, 0x65, 0x00, 0x00, 0xB1, 0x64, 
	0x00, 0x00, 0xB1, 0x06, 0x06, 0x83, 0x60, 0x81, 0x30, 0x40, 0x00, 0x91, 0x3C, 0x66, 0x83, 0x60, 
	0x81, 0x3C, 0x40, 0x00, 0x91, 0x30, 0x59, 0x83, 0x60, 0x81, 0x30, 0x40, 0x00, 0x91, 0x3C, 0x66, 
	0x83, 0x60, 0x81, 0x3C, 0x40, 0x00, 0x91, 0x30, 0x59, 0x83, 0x60, 0x81, 0x30, 0x40, 0x00, 0x91, 
	0x3C, 0x66, 0x83, 0x60, 0x81, 0x3C, 0x40, 0x00, 0x91, 0x30, 0x59, 0x83, 0x60, 0x81, 0x30, 0x40, 
	0x00, 0x91, 0x3C, 0x66, 0x83, 0x60, 0x81, 0x3C, 0x40, 0x00, 0x91, 0x2E, 0x66, 0x83, 0x60, 0x81, 
	0x2E, 0x40, 0x00, 0x91, 0x3A, 0x66, 0x83, 0x60, 0x81, 0x3A, 0x40, 0x00, 0x91, 0x2E, 0x66, 0x83, 
	0x60, 0x81, 0x2E, 0x40, 0x00, 0x91, 0x3A, 0x66, 0x83, 0x60, 0x81, 0x3A, 0x40, 0x00, 0x91, 0x2E, 
	0x66, 0x83, 0x60, 0x81, 0x2E, 0x40, 0x00, 0x91, 0x3A, 0x66, 0x83, 0x60, 0x81, 0x3A, 0x40, 0x00, 
	0x91, 0x2E, 0x66, 0x83, 0x60, 0x81, 0x2E, 0x40, 0x00, 0x91, 0x3A, 0x66, 0x83, 0x60, 0x81, 0x3A, 
	0x40, 0x00, 0x91, 0x29, 0x59, 0x83, 0x60, 0x81, 0x29, 0x40, 0x00, 0x91, 0x35, 0x59, 0x83, 0x60, 
	0x81, 0x35, 0x40, 0x00, 0x91, 0x29, 0x4C, 0x83, 0x60, 0x81, 0x29, 0x40, 0x00, 0x91, 0x35, 0x59, 
	0x83, 0x60, 0x81, 0x35, 0x40, 0x00, 0x91, 0x29, 0x59, 0x83, 0x60, 0x81, 0x29, 0x40, 0x00, 0x91, 
	0x35, 0x59, 0x83, 0x60, 0x81, 0x35, 0x40, 0x00, 0x91, 0x29, 0x59, 0x83, 0x60, 0x81, 0x29, 0x40, 
	0x00, 0x91, 0x35, 0x59, 0x83, 0x60, 0x81, 0x35, 0x40, 0x00, 0x91, 0x33, 0x59, 0x83, 0x60, 0x81, 
	0x33, 0x40, 0x83, 0x60, 0x91, 0x33, 0x59, 0x83, 0x60, 0x81, 0x33, 0x40, 0x83, 0x60, 0x91, 0x33, 
	0x66, 0x83, 0x60, 0x81, 0x33, 0x40, 0x83, 0x60, 0x91, 0x32, 0x59, 0x83, 0x60, 0x81, 0x32, 0x40, 
	0x00, 0xFF, 0x2F, 0x00, 0x4D, 0x54, 0x72, 0x6B, 0x00, 0x00, 0x00, 0xE0, 0x00, 0xFF, 0x03, 0x0E, 
	0x41, 0x63, 0x6F, 0x75, 0x73, 0x74, 0x69, 0x63, 0x20, 0x50, 0x69, 0x61, 0x6E, 0x6F, 0x00, 0xC2, 
	0x00, 0x00, 0xFF, 0x59, 0x02, 0x00, 0x01, 0x00, 0xB2, 0x65, 0x00, 0x00, 0xB2, 0x64, 0x00, 0x00, 
	0xB2, 0x06, 0x06, 0x83, 0x60, 0x92, 0x48, 0x66, 0x83, 0x60, 0x82, 0x48, 0x40, 0x00, 0x92, 0x4B, 
	0x72, 0x87, 0x40, 0x82, 0x4B, 0x40, 0x00, 0x92, 0x48, 0x66, 0x83, 0x60, 0x82, 0x48, 0x40, 0x00, 
	0x92, 0x4B, 0x66, 0x87, 0x40, 0x82, 0x4B, 0x40, 0x00, 0x92, 0x4B, 0x59, 0x87, 0x40, 0x82, 0x4B, 
	0x40, 0x00, 0x92, 0x48, 0x59, 0x83, 0x60, 0x82, 0x48, 0x40, 0x00, 0x92, 0x4A, 0x59, 0x87, 0x40, 
	0x82, 0x4A, 0x40, 0x00, 0x92, 0x48, 0x59, 0x83, 0x60, 0x82, 0x48, 0x40, 0x00, 0x92, 0x4A, 0x59, 
	0x87, 0x40, 0x82, 0x4A, 0x40, 0x00, 0x92, 0x4A, 0x66, 0x87, 0x40, 0x82, 0x4A, 0x40, 0x00, 0x92, 
	0x48, 0x59, 0x83, 0x60, 0x82, 0x48, 0x40, 0x00, 0x92, 0x4D, 0x59, 0x87, 0x40, 0x82, 0x4D, 0x40, 
	0x00, 0x92, 0x48, 0x59, 0x83, 0x60, 0x82, 0x48, 0x40, 0x00, 0x92, 0x4D, 0x59, 0x87, 0x40, 0x82, 
	0x4D, 0x40, 0x00, 0x92, 0x4D, 0x59, 0x87, 0x40, 0x82, 0x4D, 0x40, 0x00, 0x92, 0x48, 0x59, 0x83, 
	0x60, 0x82, 0x48, 0x40, 0x00, 0x92, 0x4B, 0x59, 0x87, 0x40, 0x82, 0x4B, 0x40, 0x00, 0x92, 0x48, 
	0x59, 0x83, 0x60, 0x82, 0x48, 0x40, 0x00, 0x92, 0x4B, 0x59, 0x87, 0x40, 0x82, 0x4B, 0x40, 0x00, 
	0x92, 0x4B, 0x59, 0x83, 0x60, 0x82, 0x4B, 0x40, 0x00, 0xFF, 0x2F, 0x00, 0x4D, 0x54, 0x72, 0x6B, 
	0x00, 0x00, 0x00, 0x2B, 0x00, 0xFF, 0x03, 0x0E, 0x41, 0x63, 0x6F, 0x75, 0x73, 0x74, 0x69, 0x63, 
	0x20, 0x50, 0x69, 0x61, 0x6E, 0x6F, 0x00, 0xC2, 0x00, 0x00, 0xFF, 0x59, 0x02, 0x00, 0x01, 0x00, 
	0xB2, 0x65, 0x00, 0x00, 0xB2, 0x64, 0x00, 0x00, 0xB2, 0x06, 0x06, 0x00, 0xFF, 0x2F, 0x00, 0x4D, 
	0x54, 0x72, 0x6B, 0x00, 0x00, 0x00, 0x2B, 0x00, 0xFF, 0x03, 0x0E, 0x41, 0x63, 0x6F, 0x75, 0x73, 
	0x74, 0x69, 0x63, 0x20, 0x50, 0x69, 0x61, 0x6E, 0x6F, 0x00, 0xC3, 0x00, 0x00, 0xFF, 0x59, 0x02, 
	0x00, 0x01, 0x00, 0xB3, 0x65, 0x00, 0x00, 0xB3, 0x64, 0x00, 0x00, 0xB3, 0x06, 0x06, 0x00, 0xFF, 
	0x2F, 0x00, 0x4D, 0x54, 0x72, 0x6B, 0x00, 0x00, 0x00, 0x8F, 0x00, 0x93, 0x30, 0x4C, 0x00, 0x93, 
	0x33, 0x4C, 0x00, 0x93, 0x37, 0x4C, 0x00, 0xFF, 0x03, 0x0E, 0x41, 0x63, 0x6F, 0x75, 0x73, 0x74, 
	0x69, 0x63, 0x20, 0x50, 0x69, 0x61, 0x6E, 0x6F, 0x00, 0xC3, 0x00, 0x00, 0xFF, 0x59, 0x02, 0x00, 
	0x01, 0x00, 0xB3, 0x65, 0x00, 0x00, 0xB3, 0x64, 0x00, 0x00, 0xB3, 0x06, 0x06, 0x9E, 0x00, 0x83, 
	0x30, 0x40, 0x00, 0x83, 0x33, 0x40, 0x00, 0x83, 0x37, 0x40, 0x00, 0x93, 0x2E, 0x40, 0x00, 0x93, 
	0x32, 0x40, 0x00, 0x93, 0x35, 0x40, 0x9E, 0x00, 0x83, 0x2E, 0x40, 0x00, 0x83, 0x32, 0x40, 0x00, 
	0x83, 0x35, 0x40, 0x00, 0x93, 0x30, 0x4C, 0x00, 0x93, 0x38, 0x4C, 0x00, 0x93, 0x35, 0x4C, 0x9E, 
	0x00, 0x83, 0x30, 0x40, 0x00, 0x83, 0x38, 0x40, 0x00, 0x83, 0x35, 0x40, 0x00, 0x93, 0x30, 0x40, 
	0x00, 0x93, 0x33, 0x40, 0x00, 0x93, 0x37, 0x40, 0x9E, 0x00, 0x83, 0x30, 0x40, 0x00, 0x83, 0x33, 
	0x40, 0x00, 0x83, 0x37, 0x40, 0x00, 0xFF, 0x2F, 0x00, 0x4D, 0x54, 0x72, 0x6B, 0x00, 0x00, 0x00, 
	0xE0, 0x00, 0xFF, 0x03, 0x0E, 0x41, 0x63, 0x6F, 0x75, 0x73, 0x74, 0x69, 0x63, 0x20, 0x50, 0x69, 
	0x61, 0x6E, 0x6F, 0x00, 0xC4, 0x00, 0x00, 0xFF, 0x59, 0x02, 0x00, 0x01, 0x00, 0xB4, 0x65, 0x00, 
	0x00, 0xB4, 0x64, 0x00, 0x00, 0xB4, 0x06, 0x06, 0x83, 0x60, 0x94, 0x48, 0x66, 0x83, 0x60, 0x84, 
	0x48, 0x40, 0x00, 0x94, 0x4B, 0x72, 0x87, 0x40, 0x84, 0x4B, 0x40, 0x00, 0x94, 0x48, 0x66, 0x83, 
	0x60, 0x84, 0x48, 0x40, 0x00, 0x94, 0x4B, 0x66, 0x87, 0x40, 0x84, 0x4B, 0x40, 0x00, 0x94, 0x4B, 
	0x59, 0x87, 0x40, 0x84, 0x4B, 0x40, 0x00, 0x94, 0x48, 0x59, 0x83, 0x60, 0x84, 0x48, 0x40, 0x00, 
	0x94, 0x4A, 0x59, 0x87, 0x40, 0x84, 0x4A, 0x40, 0x00, 0x94, 0x48, 0x59, 0x83, 0x60, 0x84, 0x48, 
	0x40, 0x00, 0x94, 0x4A, 0x59, 0x87, 0x40, 0x84, 0x4A, 0x40, 0x00, 0x94, 0x4A, 0x66, 0x87, 0x40, 
	0x84, 0x4A, 0x40, 0x00, 0x94, 0x48, 0x59, 0x83, 0x60, 0x84, 0x48, 0x40, 0x00, 0x94, 0x4D, 0x59, 
	0x87, 0x40, 0x84, 0x4D, 0x40, 0x00, 0x94, 0x48, 0x59, 0x83, 0x60, 0x84, 0x48, 0x40, 0x00, 0x94, 
	0x4D, 0x59, 0x87, 0x40, 0x84, 0x4D, 0x40, 0x00, 0x94, 0x4D, 0x59, 0x87, 0x40, 0x84, 0x4D, 0x40, 
	0x00, 0x94, 0x48, 0x59, 0x83, 0x60, 0x84, 0x48, 0x40, 0x00, 0x94, 0x4B, 0x59, 0x87, 0x40, 0x84, 
	0x4B, 0x40, 0x00, 0x94, 0x48, 0x59, 0x83, 0x60, 0x84, 0x48, 0x40, 0x00, 0x94, 0x4B, 0x59, 0x87, 
	0x40, 0x84, 0x4B, 0x40, 0x00, 0x94, 0x4B, 0x59, 0x83, 0x60, 0x84, 0x4B, 0x40, 0x00, 0xFF, 0x2F, 
	0x00, 0x4D, 0x54, 0x72, 0x6B, 0x00, 0x00, 0x00, 0x2B, 0x00, 0xFF, 0x03, 0x0E, 0x41, 0x63, 0x6F, 
	0x75, 0x73, 0x74, 0x69, 0x63, 0x20, 0x50, 0x69, 0x61, 0x6E, 0x6F, 0x00, 0xC4, 0x00, 0x00, 0xFF, 
	0x59, 0x02, 0x00, 0x01, 0x00, 0xB4, 0x65, 0x00, 0x00, 0xB4, 0x64, 0x00, 0x00, 0xB4, 0x06, 0x06, 
	0x00, 0xFF, 0x2F, 0x00
};

static const unsigned char Take[1689] = {
	0x4D, 0x54, 0x68, 0x64, 0x00, 0x00, 0x00, 0x06, 0x00, 0x01, 0x00, 0x0B, 0x01, 0xE0, 0x4D, 0x54, 
	0x72, 0x6B, 0x00, 0x00, 0x00, 0x13, 0x00, 0xFF, 0x51, 0x03, 0x02, 0xB3, 0x5F, 0x00, 0xFF, 0x58, 
	0x04, 0x04, 0x02, 0x18, 0x08, 0x00, 0xFF, 0x2F, 0x00, 0x4D, 0x54, 0x72, 0x6B, 0x00, 0x00, 0x00, 
	0x2B, 0x00, 0xFF, 0x03, 0x0E, 0x41, 0x63, 0x6F, 0x75, 0x73, 0x74, 0x69, 0x63, 0x20, 0x50, 0x69, 
	0x61, 0x6E, 0x6F, 0x00, 0xC0, 0x00, 0x00, 0xFF, 0x59, 0x02, 0x00, 0x01, 0x00, 0xB0, 0x65, 0x00, 
	0x00, 0xB0, 0x64, 0x00, 0x00, 0xB0, 0x06, 0x06, 0x00, 0xFF, 0x2F, 0x00, 0x4D, 0x54, 0x72, 0x6B, 
	0x00, 0x00, 0x01, 0xDB, 0x00, 0x90, 0x24, 0x66, 0x00, 0x90, 0x31, 0x66, 0x00, 0xFF, 0x03, 0x0E, 
	0x41, 0x63, 0x6F, 0x75, 0x73, 0x74, 0x69, 0x63, 0x20, 0x50, 0x69, 0x61, 0x6E, 0x6F, 0x00, 0xC0, 
	0x00, 0x00, 0xFF, 0x59, 0x02, 0x00, 0x01, 0x00, 0xB0, 0x65, 0x00, 0x00, 0xB0, 0x64, 0x00, 0x00, 
	0xB0, 0x06, 0x06, 0x83, 0x60, 0x80, 0x24, 0x40, 0x00, 0x80, 0x31, 0x40, 0x00, 0x90, 0x31, 0x66, 
	0x83, 0x60, 0x80, 0x31, 0x40, 0x00, 0x90, 0x26, 0x66, 0x00, 0x90, 0x31, 0x66, 0x83, 0x60, 0x80, 
	0x26, 0x40, 0x00, 0x80, 0x31, 0x40, 0x00, 0x90, 0x31, 0x66, 0x83, 0x60, 0x80, 0x31, 0x40, 0x00, 
	0x90, 0x24, 0x66, 0x00, 0x90, 0x31, 0x66, 0x83, 0x60, 0x80, 0x24, 0x40, 0x00, 0x80, 0x31, 0x40, 
	0x00, 0x90, 0x31, 0x66, 0x83, 0x60, 0x80, 0x31, 0x40, 0x00, 0x90, 0x26, 0x66, 0x00, 0x90, 0x31, 
	0x66, 0x83, 0x60, 0x80, 0x26, 0x40, 0x00, 0x80, 0x31, 0x40, 0x00, 0x90, 0x31, 0x66, 0x83, 0x60, 
	0x80, 0x31, 0x40, 0x00, 0x90, 0x24, 0x66, 0x00, 0x90, 0x31, 0x66, 0x83, 0x60, 0x80, 0x24, 0x40, 
	0x00, 0x80, 0x31, 0x40, 0x00, 0x90, 0x31, 0x66, 0x83, 0x60, 0x80, 0x31, 0x40, 0x00, 0x90, 0x26, 
	0x66, 0x00, 0x90, 0x31, 0x66, 0x83, 0x60, 0x80, 0x26, 0x40, 0x00, 0x80, 0x31, 0x40, 0x00, 0x90, 
	0x31, 0x66, 0x83, 0x60, 0x80, 0x31, 0x40, 0x00, 0x90, 0x24, 0x66, 0x00, 0x90, 0x31, 0x66, 0x83, 
	0x60, 0x80, 0x24, 0x40, 0x00, 0x80, 0x31, 0x40, 0x00, 0x90, 0x24, 0x66, 0x00, 0x90, 0x31, 0x66, 
	0x83, 0x60, 0x80, 0x24, 0x40, 0x00, 0x80, 0x31, 0x40, 0x00, 0x90, 0x26, 0x66, 0x00, 0x90, 0x31, 
	0x66, 0x83, 0x60, 0x80, 0x26, 0x40, 0x00, 0x80, 0x31, 0x40, 0x00, 0x90, 0x31, 0x66, 0x83, 0x60, 
	0x80, 0x31, 0x40, 0x00, 0x90, 0x24, 0x66, 0x00, 0x90, 0x31, 0x66, 0x83, 0x60, 0x80, 0x24, 0x40, 
	0x00, 0x80, 0x31, 0x40, 0x00, 0x90, 0x31, 0x66, 0x83, 0x60, 0x80, 0x31, 0x40, 0x00, 0x90, 0x26, 
	0x66, 0x00, 0x90, 0x31, 0x66, 0x83, 0x60, 0x80, 0x26, 0x40, 0x00, 0x80, 0x31, 0x40, 0x00, 0x90, 
	0x31, 0x66, 0x83, 0x60, 0x80, 0x31, 0x40, 0x00, 0x90, 0x24, 0x66, 0x00, 0x90, 0x31, 0x66, 0x83, 
	0x60, 0x80, 0x24, 0x40, 0x00, 0x80, 0x31, 0x40, 0x00, 0x90, 0x31, 0x66, 0x83, 0x60, 0x80, 0x31, 
	0x40, 0x00, 0x90, 0x26, 0x66, 0x00, 0x90, 0x31, 0x66, 0x83, 0x60, 0x80, 0x26, 0x40, 0x00, 0x80, 
	0x31, 0x40, 0x00, 0x90, 0x31, 0x66, 0x83, 0x60, 0x80, 0x31, 0x40, 0x00, 0x90, 0x24, 0x66, 0x00, 
	0x90, 0x31, 0x66, 0x83, 0x60, 0x80, 0x24, 0x40, 0x00, 0x80, 0x31, 0x40, 0x00, 0x90, 0x31, 0x66, 
	0x83, 0x60, 0x80, 0x31, 0x40, 0x00, 0x90, 0x26, 0x66, 0x00, 0x90, 0x31, 0x66, 0x83, 0x60, 0x80, 
	0x26, 0x40, 0x00, 0x80, 0x31, 0x40, 0x00, 0x90, 0x31, 0x66, 0x83, 0x60, 0x80, 0x31, 0x40, 0x00, 
	0x90, 0x24, 0x66, 0x00, 0x90, 0x31, 0x66, 0x83, 0x60, 0x80, 0x24, 0x40, 0x00, 0x80, 0x31, 0x40, 
	0x00, 0x90, 0x24, 0x66, 0x00, 0x90, 0x31, 0x66, 0x83, 0x60, 0x80, 0x24, 0x40, 0x00, 0x80, 0x31, 
	0x40, 0x00, 0x90, 0x26, 0x66, 0x00, 0x90, 0x31, 0x66, 0x83, 0x60, 0x80, 0x26, 0x40, 0x00, 0x80, 
	0x31, 0x40, 0x00, 0x90, 0x31, 0x66, 0x83, 0x60, 0x80, 0x31, 0x40, 0x00, 0xFF, 0x2F, 0x00, 0x4D, 
	0x54, 0x72, 0x6B, 0x00, 0x00, 0x00, 0x2B, 0x00, 0xFF, 0x03, 0x0E, 0x41, 0x63, 0x6F, 0x75, 0x73, 
	0x74, 0x69, 0x63, 0x20, 0x50, 0x69, 0x61, 0x6E, 0x6F, 0x00, 0xC1, 0x00, 0x00, 0xFF, 0x59, 0x02, 
	0x00, 0x01, 0x00, 0xB1, 0x65, 0x00, 0x00, 0xB1, 0x64, 0x00, 0x00, 0xB1, 0x06, 0x06, 0x00, 0xFF, 
	0x2F, 0x00, 0x4D, 0x54, 0x72, 0x6B, 0x00, 0x00, 0x00, 0xBA, 0x00, 0x91, 0x2F, 0x4C, 0x00, 0xFF, 
	0x03, 0x0E, 0x41, 0x63, 0x6F, 0x75, 0x73, 0x74, 0x69, 0x63, 0x20, 0x50, 0x69, 0x61, 0x6E, 0x6F, 
	0x00, 0xC1, 0x00, 0x00, 0xFF, 0x59, 0x02, 0x00, 0x01, 0x00, 0xB1, 0x65, 0x00, 0x00, 0xB1, 0x64, 
	0x00, 0x00, 0xB1, 0x06, 0x06, 0x83, 0x60, 0x81, 0x2F, 0x40, 0x00, 0x91, 0x2F, 0x59, 0x83, 0x60, 
	0x81, 0x2F, 0x40, 0x00, 0x91, 0x2F, 0x59, 0x83, 0x60, 0x81, 0x2F, 0x40, 0x8F, 0x00, 0x91, 0x34, 
	0x59, 0x83, 0x60, 0x81, 0x34, 0x40, 0x83, 0x60, 0x91, 0x34, 0x59, 0x83, 0x60, 0x81, 0x34, 0x40, 
	0x83, 0x60, 0x91, 0x34, 0x59, 0x83, 0x60, 0x81, 0x34, 0x40, 0x00, 0x91, 0x34, 0x59, 0x83, 0x60, 
	0x81, 0x34, 0x40, 0x8B, 0x20, 0x91, 0x2D, 0x59, 0x83, 0x60, 0x81, 0x2D, 0x40, 0x00, 0x91, 0x2D, 
	0x4C, 0x83, 0x60, 0x81, 0x2D, 0x40, 0x00, 0x91, 0x2D, 0x4C, 0x83, 0x60, 0x81, 0x2D, 0x40, 0x8F, 
	0x00, 0x91, 0x32, 0x59, 0x83, 0x60, 0x81, 0x32, 0x40, 0x83, 0x60, 0x91, 0x32, 0x59, 0x83, 0x60, 
	0x81, 0x32, 0x40, 0x83, 0x60, 0x91, 0x32, 0x4C, 0x83, 0x60, 0x81, 0x32, 0x40, 0x00, 0x91, 0x31, 
	0x4C, 0x83, 0x60, 0x81, 0x31, 0x40, 0x83, 0x60, 0x91, 0x31, 0x4C, 0x83, 0x60, 0x81, 0x31, 0x40, 
	0x00, 0xFF, 0x2F, 0x00, 0x4D, 0x54, 0x72, 0x6B, 0x00, 0x00, 0x00, 0x78, 0x00, 0x92, 0x3E, 0x59, 
	0x00, 0x92, 0x42, 0x59, 0x00, 0xFF, 0x03, 0x0E, 0x41, 0x63, 0x6F, 0x75, 0x73, 0x74, 0x69, 0x63, 
	0x20, 0x50, 0x69, 0x61, 0x6E, 0x6F, 0x00, 0xC2, 0x00, 0x00, 0xFF, 0x59, 0x02, 0x00, 0x01, 0x00, 
	0xB2, 0x65, 0x00, 0x00, 0xB2, 0x64, 0x00, 0x00, 0xB2, 0x06, 0x06, 0x9E, 0x00, 0x82, 0x3E, 0x40, 
	0x00, 0x82, 0x42, 0x40, 0x00, 0x92, 0x40, 0x59, 0x00, 0x92, 0x44, 0x59, 0x9E, 0x00, 0x82, 0x40, 
	0x40, 0x00, 0x82, 0x44, 0x40, 0x00, 0x92, 0x40, 0x59, 0x00, 0x92, 0x3D, 0x59, 0x9E, 0x00, 0x82, 
	0x40, 0x40, 0x00, 0x82, 0x3D, 0x40, 0x00, 0x92, 0x3E, 0x59, 0x00, 0x92, 0x42, 0x59, 0x8F, 0x00, 
	0x82, 0x3E, 0x40, 0x00, 0x92, 0x3D, 0x40, 0x8F, 0x00, 0x82, 0x42, 0x40, 0x00, 0x82, 0x3D, 0x40, 
	0x00, 0xFF, 0x2F, 0x00, 0x4D, 0x54, 0x72, 0x6B, 0x00, 0x00, 0x00, 0x4F, 0x00, 0x92, 0x3B, 0x59, 
	0x00, 0xFF, 0x03, 0x0E, 0x41, 0x63, 0x6F, 0x75, 0x73, 0x74, 0x69, 0x63, 0x20, 0x50, 0x69, 0x61, 
	0x6E, 0x6F, 0x00, 0xC2, 0x00, 0x00, 0xFF, 0x59, 0x02, 0x00, 0x01, 0x00, 0xB2, 0x65, 0x00, 0x00, 
	0xB2, 0x64, 0x00, 0x00, 0xB2, 0x06, 0x06, 0x9E, 0x00, 0x82, 0x3B, 0x40, 0x00, 0x92, 0x3B, 0x59, 
	0x9E, 0x00, 0x82, 0x3B, 0x40, 0x00, 0x92, 0x39, 0x59, 0x9E, 0x00, 0x82, 0x39, 0x40, 0x00, 0x92, 
	0x39, 0x59, 0x9E, 0x00, 0x82, 0x39, 0x40, 0x00, 0xFF, 0x2F, 0x00, 0x4D, 0x54, 0x72, 0x6B, 0x00, 
	0x00, 0x00, 0xF8, 0x00, 0x93, 0x42, 0x59, 0x00, 0xFF, 0x03, 0x0E, 0x41, 0x63, 0x6F, 0x75, 0x73, 
	0x74, 0x69, 0x63, 0x20, 0x50, 0x69, 0x61, 0x6E, 0x6F, 0x00, 0xC3, 0x00, 0x00, 0xFF, 0x59, 0x02, 
	0x00, 0x01, 0x00, 0xB3, 0x65, 0x00, 0x00, 0xB3, 0x64, 0x00, 0x00, 0xB3, 0x06, 0x06, 0x83, 0x60, 
	0x83, 0x42, 0x40, 0x00, 0x93, 0x42, 0x4C, 0x83, 0x60, 0x83, 0x42, 0x40, 0x00, 0x93, 0x3E, 0x59, 
	0x83, 0x60, 0x83, 0x3E, 0x40, 0x8F, 0x00, 0x93, 0x40, 0x59, 0x83, 0x60, 0x83, 0x40, 0x40, 0x83, 
	0x60, 0x93, 0x40, 0x59, 0x83, 0x60, 0x83, 0x40, 0x40, 0x83, 0x60, 0x93, 0x40, 0x4C, 0x83, 0x60, 
	0x83, 0x40, 0x40, 0x00, 0x93, 0x44, 0x4C, 0x83, 0x60, 0x83, 0x44, 0x40, 0x00, 0x93, 0x44, 0x40, 
	0x83, 0x60, 0x83, 0x44, 0x40, 0x00, 0x93, 0x45, 0x4C, 0x83, 0x60, 0x83, 0x45, 0x40, 0x00, 0x93, 
	0x47, 0x4C, 0x83, 0x60, 0x83, 0x47, 0x40, 0x00, 0x93, 0x45, 0x59, 0x83, 0x60, 0x83, 0x45, 0x40, 
	0x00, 0x93, 0x45, 0x4C, 0x83, 0x60, 0x83, 0x45, 0x40, 0x00, 0x93, 0x45, 0x40, 0x83, 0x60, 0x83, 
	0x45, 0x40, 0x00, 0x93, 0x40, 0x4C, 0x83, 0x60, 0x83, 0x40, 0x40, 0x83, 0x60, 0x93, 0x3E, 0x4C, 
	0x83, 0x60, 0x83, 0x3E, 0x40, 0x83, 0x60, 0x93, 0x42, 0x40, 0x83, 0x60, 0x83, 0x42, 0x40, 0x83, 
	0x60, 0x93, 0x42, 0x4C, 0x83, 0x60, 0x83, 0x42, 0x40, 0x83, 0x60, 0x93, 0x42, 0x4C, 0x83, 0x60, 
	0x83, 0x42, 0x40, 0x00, 0x93, 0x40, 0x4C, 0x83, 0x60, 0x83, 0x40, 0x40, 0x00, 0x93, 0x40, 0x4C, 
	0x83, 0x60, 0x83, 0x40, 0x40, 0x00, 0x93, 0x42, 0x4C, 0x83, 0x60, 0x83, 0x42, 0x40, 0x00, 0x93, 
	0x40, 0x59, 0x83, 0x60, 0x83, 0x40, 0x40, 0x00, 0xFF, 0x2F, 0x00, 0x4D, 0x54, 0x72, 0x6B, 0x00, 
	0x00, 0x00, 0x3F, 0x00, 0xFF, 0x03, 0x0E, 0x41, 0x63, 0x6F, 0x75, 0x73, 0x74, 0x69, 0x63, 0x20, 
	0x50, 0x69, 0x61, 0x6E, 0x6F, 0x00, 0xC3, 0x00, 0x00, 0xFF, 0x59, 0x02, 0x00, 0x01, 0x00, 0xB3, 
	0x65, 0x00, 0x00, 0xB3, 0x64, 0x00, 0x00, 0xB3, 0x06, 0x06, 0x8B, 0x20, 0x93, 0x3B, 0x66, 0x83, 
	0x60, 0x83, 0x3B, 0x40, 0x83, 0x60, 0x93, 0x3B, 0x59, 0x83, 0x60, 0x83, 0x3B, 0x40, 0x00, 0xFF, 
	0x2F, 0x00, 0x4D, 0x54, 0x72, 0x6B, 0x00, 0x00, 0x00, 0xF8, 0x00, 0x94, 0x42, 0x59, 0x00, 0xFF, 
	0x03, 0x0E, 0x41, 0x63, 0x6F, 0x75, 0x73, 0x74, 0x69, 0x63, 0x20, 0x50, 0x69, 0x61, 0x6E, 0x6F, 
	0x00, 0xC4, 0x00, 0x00, 0xFF, 0x59, 0x02, 0x00, 0x01, 0x00, 0xB4, 0x65, 0x00, 0x00, 0xB4, 0x64, 
	0x00, 0x00, 0xB4, 0x06, 0x06, 0x83, 0x60, 0x84, 0x42, 0x40, 0x00, 0x94, 0x42, 0x4C, 0x83, 0x60, 
	0x84, 0x42, 0x40, 0x00, 0x94, 0x3E, 0x59, 0x83, 0x60, 0x84, 0x3E, 0x40, 0x8F, 0x00, 0x94, 0x40, 
	0x59, 0x83, 0x60, 0x84, 0x40, 0x40, 0x83, 0x60, 0x94, 0x40, 0x59, 0x83, 0x60, 0x84, 0x40, 0x40, 
	0x83, 0x60, 0x94, 0x40, 0x4C, 0x83, 0x60, 0x84, 0x40, 0x40, 0x00, 0x94, 0x44, 0x4C, 0x83, 0x60, 
	0x84, 0x44, 0x40, 0x00, 0x94, 0x44, 0x40, 0x83, 0x60, 0x84, 0x44, 0x40, 0x00, 0x94, 0x45, 0x4C, 
	0x83, 0x60, 0x84, 0x45, 0x40, 0x00, 0x94, 0x47, 0x4C, 0x83, 0x60, 0x84, 0x47, 0x40, 0x00, 0x94, 
	0x45, 0x59, 0x83, 0x60, 0x84, 0x45, 0x40, 0x00, 0x94, 0x45, 0x4C, 0x83, 0x60, 0x84, 0x45, 0x40, 
	0x00, 0x94, 0x45, 0x40, 0x83, 0x60, 0x84, 0x45, 0x40, 0x00, 0x94, 0x40, 0x4C, 0x83, 0x60, 0x84, 
	0x40, 0x40, 0x83, 0x60, 0x94, 0x3E, 0x4C, 0x83, 0x60, 0x84, 0x3E, 0x40, 0x83, 0x60, 0x94, 0x42, 
	0x40, 0x83, 0x60, 0x84, 0x42, 0x40, 0x83, 0x60, 0x94, 0x42, 0x4C, 0x83, 0x60, 0x84, 0x42, 0x40, 
	0x83, 0x60, 0x94, 0x42, 0x4C, 0x83, 0x60, 0x84, 0x42, 0x40, 0x00, 0x94, 0x40, 0x4C, 0x83, 0x60, 
	0x84, 0x40, 0x40, 0x00, 0x94, 0x40, 0x4C, 0x83, 0x60, 0x84, 0x40, 0x40, 0x00, 0x94, 0x42, 0x4C, 
	0x83, 0x60, 0x84, 0x42, 0x40, 0x00, 0x94, 0x40, 0x59, 0x83, 0x60, 0x84, 0x40, 0x40, 0x00, 0xFF, 
	0x2F, 0x00, 0x4D, 0x54, 0x72, 0x6B, 0x00, 0x00, 0x00, 0x3F, 0x00, 0xFF, 0x03, 0x0E, 0x41, 0x63, 
	0x6F, 0x75, 0x73, 0x74, 0x69, 0x63, 0x20, 0x50, 0x69, 0x61, 0x6E, 0x6F, 0x00, 0xC4, 0x00, 0x00, 
	0xFF, 0x59, 0x02, 0x00, 0x01, 0x00, 0xB4, 0x65, 0x00, 0x00, 0xB4, 0x64, 0x00, 0x00, 0xB4, 0x06, 
	0x06, 0x8B, 0x20, 0x94, 0x3B, 0x66, 0x83, 0x60, 0x84, 0x3B, 0x40, 0x83, 0x60, 0x94, 0x3B, 0x59, 
	0x83, 0x60, 0x84, 0x3B, 0x40, 0x00, 0xFF, 0x2F, 0x00
};